<?xml version="1.0" encoding="UTF-8" standalone="no"?>
<svg
   version="1.1"
   id="Layer_1"
   x="0px"
   y="0px"
   width="734.963px"
   height="551.972px"
   viewBox="0 0 734.963 551.972"
   enable-background="new 0 0 734.963 551.972"
   xml:space="preserve"
   sodipodi:docname="Moebius.svg"
   inkscape:version="1.4.2 (ebf0e940d0, 2025-05-08)"
   xmlns:inkscape="http://www.inkscape.org/namespaces/inkscape"
   xmlns:sodipodi="http://sodipodi.sourceforge.net/DTD/sodipodi-0.dtd"
   xmlns="http://www.w3.org/2000/svg"
   xmlns:svg="http://www.w3.org/2000/svg"><defs
   id="defs20" /><sodipodi:namedview
   id="namedview20"
   pagecolor="#505050"
   bordercolor="#eeeeee"
   borderopacity="1"
   inkscape:showpageshadow="0"
   inkscape:pageopacity="0"
   inkscape:pagecheckerboard="0"
   inkscape:deskcolor="#505050"
   inkscape:zoom="0.45122418"
   inkscape:cx="375.64477"
   inkscape:cy="388.94193"
   inkscape:window-width="1280"
   inkscape:window-height="662"
   inkscape:window-x="0"
   inkscape:window-y="0"
   inkscape:window-maximized="1"
   inkscape:current-layer="Layer_1" />


<path
   fill="#0081CD"
   stroke="#000000"
   stroke-width="3"
   stroke-miterlimit="10"
   d="M342.519,134.583  c98,3,158.387,18.652,201.193,67.326l64.751-58.276c-56.906-55.093-175.815-87.395-265.944-86.05  c-94.727,1.414-163.225,21.651-239.961,72.125l8.827,68.022C149.013,178.865,231.938,131.197,342.519,134.583z"
   id="path3"
   style="fill:none;stroke:#0000ff;stroke-opacity:1" />
<path
   fill="#BC1E47"
   stroke="#000000"
   stroke-width="3"
   stroke-miterlimit="10"
   d="M59.267,363.601  c-47.768-69-6.035-135.706,54.099-165.853l-8.827-68.022C46.577,167.85,55.622,247.671,91.171,295.601  c35.548,47.93,98.328,89,229.328,97l-9.678,93.023C183.499,481.601,107.033,432.601,59.267,363.601z"
   id="path4"
   style="fill:none;stroke:#0000ff;stroke-opacity:1" />

<path
   fill="#0EEFB1"
   stroke="#000000"
   stroke-width="3"
   stroke-miterlimit="10"
   d="M649.659,351.195  c45.962-63,26.038-144-40.018-207.95l-64.751,58.276c42.807,48.674,45.27,84.373,15.538,121.523s-109.731,77.15-240.731,69.15  l-9.678,93.023C486.331,490.79,585.807,438.717,649.659,351.195z"
   id="path6"
   style="fill:none;stroke:#0000ff;stroke-opacity:1" />
<path
   fill="#CC33CC"
   d="M63.573,210.895c-0.771-23.5,1.212-38.996,7.13-53.934"
   id="path7"
   style="fill:none" />
<path
   fill="#BC1E47"
   d="M39.769,290.145c2-33,16.429-81.919,20.75-97.25c-1.25,41.25,4,60.5,12.5,79.5"
   id="path8"
   style="fill:none" />
<path
   fill="#009246"
   d="M26.769,349.645c0,0,3.125-34.75,8.625-58.25c-0.5,31.5,8.625,53.25,8.625,53.25L26.769,349.645z"
   id="path9"
   style="fill:none" />


<circle
   fill="#FFFFFF"
   stroke="#000000"
   stroke-width="3"
   stroke-miterlimit="10"
   cx="104.538"
   cy="129.726"
   r="6"
   id="circle11"
   style="fill:none;stroke:#d40000;stroke-opacity:1" />
<circle
   fill="#FFFFFF"
   stroke="#000000"
   stroke-width="3"
   stroke-miterlimit="10"
   cx="113.365"
   cy="197.748"
   r="6"
   id="circle12"
   style="fill:none;stroke:#d40000;stroke-opacity:1" />
<circle
   fill="#FFFFFF"
   stroke="#000000"
   stroke-width="3"
   stroke-miterlimit="10"
   cx="544.891"
   cy="201.521"
   r="6"
   id="circle13"
   style="fill:none;stroke:#d40000;stroke-opacity:1" />
<circle
   fill="#FFFFFF"
   stroke="#000000"
   stroke-width="3"
   stroke-miterlimit="10"
   cx="609.642"
   cy="143.245"
   r="6"
   id="circle14"
   style="fill:none;stroke:#d40000;stroke-opacity:1" />


<circle
   fill="#FFFFFF"
   stroke="#000000"
   stroke-width="3"
   stroke-miterlimit="10"
   cx="320.499"
   cy="392.601"
   r="6"
   id="circle17"
   style="fill:none;stroke:#d40000;stroke-opacity:1" />
<circle
   fill="#FFFFFF"
   stroke="#000000"
   stroke-width="3"
   stroke-miterlimit="10"
   cx="310.02"
   cy="485.218"
   r="6"
   id="circle18"
   style="fill:none;stroke:#d40000;stroke-opacity:1" />


<path
   style="fill:none;fill-opacity:1;stroke:#3bce00;stroke-opacity:1;stroke-width:2;stroke-dasharray:none"
   d="m 539.07735,186.48315 51.71381,-43.87839"
   id="path21" /><path
   style="fill:none;fill-opacity:1;stroke:#3bce00;stroke-width:2;stroke-dasharray:none;stroke-opacity:1"
   d="M 565.7178,162.97688 517.13816,134.76934"
   id="path22" /><path
   style="fill:none;fill-opacity:1;stroke:#3bce00;stroke-opacity:1;stroke-width:2;stroke-dasharray:none"
   d="m 119.09848,130.06808 4.70126,48.57965"
   id="path23" /><path
   style="fill:none;fill-opacity:1;stroke:#3bce00;stroke-width:2;stroke-dasharray:none;stroke-opacity:1"
   d="m 122.23265,155.14145 43.87839,-14.10377"
   id="path24" /><path
   style="fill:none;fill-opacity:1;stroke:#3bce00;stroke-opacity:1;stroke-width:2;stroke-dasharray:none"
   d="M 100.29346,192.75149 95.592204,145.73893"
   id="path25" /><path
   style="fill:none;fill-opacity:1;stroke:#3bce00;stroke-width:2;stroke-dasharray:none;stroke-opacity:1"
   d="M 97.15929,170.8123 76.78718,200.58692"
   id="path26" /><path
   style="fill:none;fill-opacity:1;stroke:#3bce00;stroke-opacity:1;stroke-width:2;stroke-dasharray:none"
   d="m 302.44747,404.30801 -6.26835,68.95176"
   id="path27" /><path
   style="fill:none;fill-opacity:1;stroke:#3bce00;stroke-width:2;stroke-dasharray:none;stroke-opacity:1"
   d="m 299.3133,438.78389 -64.2505,-4.70126"
   id="path28" /><path
   style="fill:none;fill-opacity:1;stroke:#3bce00;stroke-opacity:1;stroke-width:2;stroke-dasharray:none"
   d="m 325.95375,471.69268 3.13417,-61.11633"
   id="path29" /><path
   style="fill:none;fill-opacity:1;stroke:#3bce00;stroke-width:2;stroke-dasharray:none;stroke-opacity:1"
   d="m 327.52082,443.48515 64.2505,-10.9696"
   id="path30" /><path
   style="fill:none;fill-opacity:1;stroke:#d40000;stroke-opacity:1;stroke-width:2;stroke-dasharray:none"
   d="M 562.58363,203.72109 608.0291,162.97687"
   id="path31" /><path
   style="fill:none;fill-opacity:1;stroke:#d40000;stroke-width:2;stroke-dasharray:none;stroke-opacity:1"
   d="m 581.38864,184.91607 34.47588,40.74422"
   id="path32" /><path
   style="fill:none;fill-opacity:1;stroke:#d40000;stroke-width:2;stroke-dasharray:none;stroke-opacity:1"
   d="M 518.70524,147.30603 Z"
   id="path33" /><path
   style="fill:none;fill-opacity:1;stroke:#3bce00;stroke-width:2;stroke-dasharray:none;stroke-opacity:1"
   d="m 530.15366,132.61035 -13.29716,2.07768 1.80065,13.57419"
   id="path35" /><path
   style="fill:none;fill-opacity:1;stroke:#3bce00;stroke-width:2;stroke-dasharray:none;stroke-opacity:1"
   d="m 582.8578,143.68214 7.73748,-1.46915 -0.29383,8.12926"
   id="path36" /><path
   style="fill:none;fill-opacity:1;stroke:#3bce00;stroke-width:2;stroke-dasharray:none;stroke-opacity:1"
   d="m 117.33551,175.31767 7.34572,4.50537 3.72182,-7.05188"
   id="path37" /><path
   style="fill:none;fill-opacity:1;stroke:#3bce00;stroke-width:2;stroke-dasharray:none;stroke-opacity:1"
   d="m 158.66738,138.19734 7.34572,2.7424 -4.40743,6.26834"
   id="path38" /><path
   style="fill:none;fill-opacity:1;stroke:#3bce00;stroke-width:2;stroke-dasharray:none;stroke-opacity:1"
   d="m 93.045691,156.90442 2.546513,-10.9696 5.093026,10.57783"
   id="path39" /><path
   style="fill:none;fill-opacity:1;stroke:#3bce00;stroke-width:2;stroke-dasharray:none;stroke-opacity:1"
   d="m 77.570723,191.77206 -0.979428,8.81486 9.794283,-4.30949"
   id="path40" /><path
   style="fill:none;fill-opacity:1;stroke:#3bce00;stroke-width:2;stroke-dasharray:none;stroke-opacity:1"
   d="m 244.58787,430.44942 -9.14179,3.32429 6.64858,6.37156"
   id="path41" /><path
   style="fill:none;fill-opacity:1;stroke:#3bce00;stroke-width:2;stroke-dasharray:none;stroke-opacity:1"
   d="m 376.12005,429.33853 14.68228,3.04726 -9.1418,9.97287"
   id="path44" /><path
   style="fill:none;fill-opacity:1;stroke:#d40000;stroke-width:2;stroke-dasharray:none;stroke-opacity:1"
   d="m 598.64922,163.44426 9.69584,-1.38512 -1.38512,11.35799"
   id="path45" /><path
   style="fill:none;fill-opacity:1;stroke:#d40000;stroke-width:2;stroke-dasharray:none;stroke-opacity:1"
   d="m 601.75356,220.7638 12.74311,3.60131 -4.98643,-13.57418"
   id="path46" /><path
   style="fill:none;fill-opacity:1;stroke:#d44b00;stroke-width:2;stroke-dasharray:none;stroke-opacity:1"
   d="m 494.41542,73.65301 -14.29966,3.525942 6.07246,12.340797"
   id="path47" /><path
   style="fill:none;fill-opacity:1;stroke:#d44b00;stroke-width:2;stroke-dasharray:none;stroke-opacity:1"
   d="m 218.6084,62.683413 -25.85691,18.805023 24.28983,7.051884"
   id="path50" /><path
   style="fill:none;fill-opacity:1;stroke:#d44b00;stroke-width:2;stroke-dasharray:none;stroke-opacity:1"
   d="m 54.064443,195.88566 7.835427,20.37211 6.268341,-12.53668"
   id="path53" /><path
   style="fill:none;fill-opacity:1;stroke:#31b7ff;stroke-width:2;stroke-dasharray:none;stroke-opacity:1"
   d="m 184.13252,456.02183 -21.15565,-2.35063 11.75314,17.23794"
   id="path57" /><path
   style="fill:none;fill-opacity:1;stroke:#31b7ff;stroke-width:2;stroke-dasharray:none;stroke-opacity:1"
   d="m 68.951754,219.39194 20.372109,-8.61897 -11.75314,20.37211"
   id="path61" /><path
   style="fill:none;fill-opacity:1;stroke:#d44b00;stroke-width:2;stroke-dasharray:none;stroke-opacity:1"
   d="m 204.99788,145.71471 17.1755,5.54048 -12.18906,13.85121"
   id="path62" /><path
   style="fill:none;fill-opacity:1;stroke:#d44b00;stroke-width:2;stroke-dasharray:none;stroke-opacity:1"
   d="m 491.44087,145.71471 6.09453,18.28359 -24.93218,2.77025"
   id="path64" /><path
   style="fill:none;fill-opacity:1;stroke:#31b7ff;stroke-width:2;stroke-dasharray:none;stroke-opacity:1"
   d="m 44.60089,312.20623 -5.540483,-16.0674 -6.64858,22.16193"
   id="path65" /><path
   style="fill:none;fill-opacity:1;stroke:#d44b00;stroke-width:2;stroke-dasharray:none;stroke-opacity:1"
   d="m 160.67401,335.75329 19.94574,27.14836 -36.01314,0.55405"
   id="path66" /><path
   style="fill:none;fill-opacity:1;stroke:#d44b00;stroke-width:2;stroke-dasharray:none;stroke-opacity:1"
   d="m 89.755829,272.59178 -1.108097,21.05383 -16.62145,-11.08096"
   id="path67" /><path
   style="fill:none;fill-opacity:1;stroke:#d44b00;stroke-width:2;stroke-dasharray:none;stroke-opacity:1"
   d="m 434.37389,375.64477 22.16193,5.54048 -17.72955,17.72955"
   id="path68" /><path
   style="fill:none;fill-opacity:1;stroke:#d44b00;stroke-width:2;stroke-dasharray:none;stroke-opacity:1"
   d="m 552.10916,316.63862 18.83764,-10.80394 5.26346,16.34442"
   id="path69" /><path
   style="fill:none;fill-opacity:1;stroke:#d44b00;stroke-width:2;stroke-dasharray:none;stroke-opacity:1"
   d="m 647.98978,322.81958 3.91771,25.07336 26.64045,-17.23794"
   id="path70" /><path
   style="fill:none;fill-opacity:1;stroke:#d44b00;stroke-width:2;stroke-dasharray:none;stroke-opacity:1"
   d="m 477.96102,456.02183 -23.50628,17.23794 24.28982,7.83542"
   id="path71" /><path
   style="fill:none;fill-opacity:1;stroke:#3bce00;stroke-width:2;stroke-dasharray:none;stroke-opacity:1"
   d="m 290.30255,459.93954 5.87657,12.14491 5.87657,-10.57782"
   id="path72" /><path
   style="fill:none;fill-opacity:1;stroke:#3bce00;stroke-width:2;stroke-dasharray:none;stroke-opacity:1"
   d="m 321.25249,419.19532 7.05188,-8.2272 4.30949,10.18606"
   id="path73" /><path
   style="fill:#d44b00;fill-opacity:1;stroke:#3bce00;stroke-width:2;stroke-opacity:1"
   d="M 349.05045,80.891056 Z"
   id="path1" /><path
   style="fill:none;fill-opacity:1;stroke:#3bce00;stroke-width:2;stroke-opacity:1"
   d="m 349.05044,59.83722 -4.43238,23.270029"
   id="path2" /><path
   style="fill:none;fill-opacity:1;stroke:#3bce00;stroke-width:2;stroke-opacity:1"
   d="m 339.27397,74.632438 5.28891,8.423084 9.20663,-6.464227"
   id="path5" /><path
   style="fill:none;fill-opacity:1;stroke:#3bce00;stroke-width:2;stroke-opacity:1"
   d="m 340.44929,111.65483 -4.50537,23.70216"
   id="path11" /><path
   style="fill:none;fill-opacity:1;stroke:#3bce00;stroke-width:2;stroke-opacity:1"
   d="m 333.59329,116.1602 6.26834,-5.28891 3.52594,7.05188"
   id="path12" /><path
   style="fill:#00ff00;fill-opacity:1;stroke:#3bce00;stroke-width:2;stroke-opacity:1"
   d="m 115.96431,325.1702 -14.49554,18.02148"
   id="path14" /><path
   style="fill:none;fill-opacity:1;stroke:#3bce00;stroke-width:2;stroke-opacity:1"
   d="m 100.48935,334.7686 0.19588,9.20663 10.18606,-2.15474"
   id="path15" /><path
   style="fill:none;fill-opacity:1;stroke:none;stroke-width:2;stroke-opacity:1"
   d="M 67.039848,376.75286 83.107249,365.11785"
   id="path16" /><path
   style="fill:none;fill-opacity:1;stroke:#3bce00;stroke-width:2;stroke-opacity:1"
   d="M 68.701993,378.41501 86.431539,363.4557"
   id="path17" /><path
   style="fill:none;fill-opacity:1;stroke:#3bce00;stroke-width:2;stroke-opacity:1"
   d="m 78.452209,364.64117 7.737484,-1.27326 -2.154743,7.73748"
   id="path18" /><path
   style="fill:none;fill-opacity:1;stroke:#3bce00;stroke-width:2;stroke-opacity:1"
   d="m 549.2634,334.18094 21.15566,12.92846"
   id="path19" /><path
   style="fill:none;fill-opacity:1;stroke:#3bce00;stroke-width:2;stroke-opacity:1"
   d="m 569.24374,337.70689 2.35063,10.18605 -18.41325,-0.78354"
   id="path20" /><path
   style="fill:none;fill-opacity:1;stroke:#3bce00;stroke-width:2;stroke-opacity:1"
   d="M 620.56579,382.36882 599.80191,369.83213"
   id="path34" /><path
   style="fill:none;fill-opacity:1;stroke:#3bce00;stroke-width:2;stroke-opacity:1"
   d="m 614.68922,369.04859 -16.06263,0.78354 v 10.18606"
   id="path42" /></svg>
