<?xml version="1.0" encoding="UTF-8" standalone="no"?>
<!-- Generated by dot version 2.8 (Fri Feb  3 22:38:53 UTC 2006) -->

<!-- Title: HasseDiagram Pages: 1 -->

<svg
   width="343pt"
   height="260pt"
   viewBox="0 0 343 260"
   version="1.1"
   id="svg21"
   sodipodi:docname="Hasse_diagram.svg"
   inkscape:version="1.4 (e7c3feb100, 2024-10-09)"
   xmlns:inkscape="http://www.inkscape.org/namespaces/inkscape"
   xmlns:sodipodi="http://sodipodi.sourceforge.net/DTD/sodipodi-0.dtd"
   xmlns="http://www.w3.org/2000/svg"
   xmlns:svg="http://www.w3.org/2000/svg">
  <defs
     id="defs21" />
  <sodipodi:namedview
     id="namedview21"
     pagecolor="#505050"
     bordercolor="#eeeeee"
     borderopacity="1"
     inkscape:showpageshadow="0"
     inkscape:pageopacity="0"
     inkscape:pagecheckerboard="0"
     inkscape:deskcolor="#505050"
     inkscape:document-units="pt"
     inkscape:zoom="1.0255102"
     inkscape:cx="228.66667"
     inkscape:cy="173.57214"
     inkscape:window-width="1280"
     inkscape:window-height="692"
     inkscape:window-x="0"
     inkscape:window-y="0"
     inkscape:window-maximized="1"
     inkscape:current-layer="svg21" />
  <title
     id="title1">Hasse diagram</title>
  <g
     id="graph0"
     class="graph"
     style="font-family:Times-Roman;font-size:14.00;">
    <polygon
       style="fill:#000000;stroke:#000000;"
       points="-2,262 -2,-2 345,-2 345,262 -2,262"
       id="polygon1" />
    <!-- xyz -->
    <g
       id="node1"
       class="node">
      <title
         id="title2">xyz</title>
      <ellipse
         style="fill:none;stroke:#0056e1;"
         cx="171"
         cy="22"
         rx="31"
         ry="18"
         id="ellipse2" />
      <text
         text-anchor="middle"
         x="171"
         y="27"
         style="font-family:'Bitstream Vera Sans';fill:#aa0000"
         id="text2">{x,y,z}</text>
    </g>
    <!-- yz -->
    <g
       id="node2"
       class="node">
      <title
         id="title3">yz</title>
      <ellipse
         style="fill:none;stroke:#0056e1;"
         cx="293"
         cy="94"
         rx="27"
         ry="18"
         id="ellipse3" />
      <text
         text-anchor="middle"
         x="293"
         y="99"
         style="font-family:'Bitstream Vera Sans';fill:#aa0000"
         id="text3">{y,z}</text>
    </g>
    <!-- xyz&#45;&gt;yz -->
    <g
       id="edge3"
       class="edge">
      <title
         id="title4">xyz-&gt;yz</title>
      <path
         style="fill:none;stroke:#0056e1;"
         d="M202,40C224,54 254,71 273,82"
         id="path4" />
      <polygon
         style="fill:none;stroke:#0056e1;"
         points="200,43 193,35 203,37 200,43"
         id="polygon4" />
    </g>
    <!-- xz -->
    <g
       id="node3"
       class="node">
      <title
         id="title5">xz</title>
      <ellipse
         style="fill:none;stroke:#0056e1;"
         cx="171"
         cy="94"
         rx="27"
         ry="18"
         id="ellipse5" />
      <text
         text-anchor="middle"
         x="171"
         y="99"
         style="font-family:'Bitstream Vera Sans';fill:#aa0000"
         id="text5">{x,z}</text>
    </g>
    <!-- xyz&#45;&gt;xz -->
    <g
       id="edge4"
       class="edge">
      <title
         id="title6">xyz-&gt;xz</title>
      <path
         style="fill:none;stroke:#0056e1;"
         d="M171,50C171,59 171,68 171,76"
         id="path6" />
      <polygon
         style="fill:none;stroke:#0056e1;"
         points="168,50 171,40 175,50 168,50"
         id="polygon6" />
    </g>
    <!-- xy -->
    <g
       id="node4"
       class="node">
      <title
         id="title7">xy</title>
      <ellipse
         style="fill:none;stroke:#0056e1;"
         cx="49"
         cy="94"
         rx="27"
         ry="18"
         id="ellipse7" />
      <text
         text-anchor="middle"
         x="49"
         y="99"
         style="font-family:'Bitstream Vera Sans';fill:#aa0000"
         id="text7">{x,y}</text>
    </g>
    <!-- xyz&#45;&gt;xy -->
    <g
       id="edge5"
       class="edge">
      <title
         id="title8">xyz-&gt;xy</title>
      <path
         style="fill:none;stroke:#0056e1;"
         d="M140,40C118,54 88,71 69,82"
         id="path8" />
      <polygon
         style="fill:none;stroke:#0056e1;"
         points="139,37 149,35 142,43 139,37"
         id="polygon8" />
    </g>
    <!-- y -->
    <g
       id="node6"
       class="node">
      <title
         id="title9">y</title>
      <ellipse
         style="fill:none;stroke:#0056e1;"
         cx="171"
         cy="166"
         rx="27"
         ry="18"
         id="ellipse9" />
      <text
         text-anchor="middle"
         x="171"
         y="171"
         style="font-family:'Bitstream Vera Sans';fill:#aa0000"
         id="text9">{y}</text>
    </g>
    <!-- yz&#45;&gt;y -->
    <g
       id="edge8"
       class="edge">
      <title
         id="title10">yz-&gt;y</title>
      <path
         style="fill:none;stroke:#0056e1;"
         d="M264,111C242,125 211,143 192,154"
         id="path10" />
      <polygon
         style="fill:none;stroke:#0056e1;"
         points="263,108 273,106 266,114 263,108"
         id="polygon10" />
    </g>
    <!-- z -->
    <g
       id="node7"
       class="node">
      <title
         id="title11">z</title>
      <ellipse
         style="fill:none;stroke:#0056e1;"
         cx="293"
         cy="166"
         rx="27"
         ry="18"
         id="ellipse11" />
      <text
         text-anchor="middle"
         x="293"
         y="171"
         style="font-family:'Bitstream Vera Sans';fill:#aa0000"
         id="text11">{z}</text>
    </g>
    <!-- yz&#45;&gt;z -->
    <g
       id="edge9"
       class="edge">
      <title
         id="title12">yz-&gt;z</title>
      <path
         style="fill:none;stroke:#0056e1;"
         d="M293,122C293,131 293,140 293,148"
         id="path12" />
      <polygon
         style="fill:none;stroke:#0056e1;"
         points="290,122 293,112 297,122 290,122"
         id="polygon12" />
    </g>
    <!-- x -->
    <g
       id="node5"
       class="node">
      <title
         id="title13">x</title>
      <ellipse
         style="fill:none;stroke:#0056e1;"
         cx="49"
         cy="166"
         rx="27"
         ry="18"
         id="ellipse13" />
      <text
         text-anchor="middle"
         x="49"
         y="171"
         style="font-family:'Bitstream Vera Sans';fill:#aa0000"
         id="text13">{x}</text>
    </g>
    <!-- xz&#45;&gt;x -->
    <g
       id="edge12"
       class="edge">
      <title
         id="title14">xz-&gt;x</title>
      <path
         style="fill:none;stroke:#0056e1;"
         d="M142,111C120,125 89,143 70,154"
         id="path14" />
      <polygon
         style="fill:none;stroke:#0056e1;"
         points="141,108 151,106 144,114 141,108"
         id="polygon14" />
    </g>
    <!-- xz&#45;&gt;z -->
    <g
       id="edge13"
       class="edge">
      <title
         id="title15">xz-&gt;z</title>
      <path
         style="fill:none;stroke:#0056e1;"
         d="M200,111C222,125 253,143 272,154"
         id="path15" />
      <polygon
         style="fill:none;stroke:#0056e1;"
         points="198,114 191,106 201,108 198,114"
         id="polygon15" />
    </g>
    <!-- xy&#45;&gt;x -->
    <g
       id="edge16"
       class="edge">
      <title
         id="title16">xy-&gt;x</title>
      <path
         style="fill:none;stroke:#0056e1;"
         d="M49,122C49,131 49,140 49,148"
         id="path16" />
      <polygon
         style="fill:none;stroke:#0056e1;"
         points="46,122 49,112 53,122 46,122"
         id="polygon16" />
    </g>
    <!-- xy&#45;&gt;y -->
    <g
       id="edge17"
       class="edge">
      <title
         id="title17">xy-&gt;y</title>
      <path
         style="fill:none;stroke:#0056e1;"
         d="M78,111C100,125 131,143 150,154"
         id="path17" />
      <polygon
         style="fill:none;stroke:#0056e1;"
         points="76,114 69,106 79,108 76,114"
         id="polygon17" />
    </g>
    <!-- phi -->
    <g
       id="node8"
       class="node">
      <title
         id="title18">phi</title>
      <ellipse
         style="fill:none;stroke:#0056e1;"
         cx="171"
         cy="238"
         rx="27"
         ry="18"
         id="ellipse18" />
      <text
         text-anchor="middle"
         x="171"
         y="243"
         style="font-family:'Bitstream Vera Sans';fill:#aa0000"
         id="text18">Ø</text>
    </g>
    <!-- x&#45;&gt;phi -->
    <g
       id="edge19"
       class="edge">
      <title
         id="title19">x-&gt;phi</title>
      <path
         style="fill:none;stroke:#0056e1;"
         d="M78,183C100,197 131,215 150,226"
         id="path19" />
      <polygon
         style="fill:none;stroke:#0056e1;"
         points="76,186 69,178 79,180 76,186"
         id="polygon19" />
    </g>
    <!-- y&#45;&gt;phi -->
    <g
       id="edge21"
       class="edge">
      <title
         id="title20">y-&gt;phi</title>
      <path
         style="fill:none;stroke:#0056e1;"
         d="M171,194C171,203 171,212 171,220"
         id="path20" />
      <polygon
         style="fill:none;stroke:#0056e1;"
         points="168,194 171,184 175,194 168,194"
         id="polygon20" />
    </g>
    <!-- z&#45;&gt;phi -->
    <g
       id="edge23"
       class="edge">
      <title
         id="title21">z-&gt;phi</title>
      <path
         style="fill:none;stroke:#0056e1;"
         d="M264,183C242,197 211,215 192,226"
         id="path21" />
      <polygon
         style="fill:none;stroke:#0056e1;"
         points="263,180 273,178 266,186 263,180"
         id="polygon21" />
    </g>
  </g>
</svg>
